<svg id="_0110_report_analysis_1" xmlns="http://www.w3.org/2000/svg" viewBox="0 0 500 500" data-imageid="report-analysis-1-6" imageName="Report Analysis 1" class="illustrations_image" style="width: 166px;"><defs><style>.cls-1_report-analysis-1-6{fill:#fff;}.cls-2_report-analysis-1-6{fill:#f4a28c;}.cls-3_report-analysis-1-6{opacity:.43;}.cls-3_report-analysis-1-6,.cls-4_report-analysis-1-6,.cls-5_report-analysis-1-6,.cls-6_report-analysis-1-6,.cls-7_report-analysis-1-6,.cls-8_report-analysis-1-6,.cls-9_report-analysis-1-6{fill:none;}.cls-4_report-analysis-1-6{opacity:.46;}.cls-10_report-analysis-1-6{fill:#a5a5a5;}.cls-5_report-analysis-1-6{opacity:.56;}.cls-11_report-analysis-1-6{fill:#ce8172;}.cls-12_report-analysis-1-6{fill:#e6e6e6;}.cls-6_report-analysis-1-6{opacity:.03;}.cls-7_report-analysis-1-6{opacity:.08;}.cls-8_report-analysis-1-6{opacity:.12;}.cls-9_report-analysis-1-6{opacity:.31;}.cls-13_report-analysis-1-6{fill:#24285b;}.cls-14_report-analysis-1-6{fill:#000001;}.cls-15_report-analysis-1-6{fill:#ffd200;}.cls-16_report-analysis-1-6{fill:#68e1fd;}</style></defs><g id="bg_report-analysis-1-6"><polygon class="cls-10_report-analysis-1-6" points="481 141.87 417.02 158.77 432.58 173.84 353.97 256.74 285.8 165.97 185.24 264.12 91.67 224.14 21.2 300.24 37.88 315.69 97.47 251.34 190.26 290.99 283.16 200.31 351.95 291.91 448.92 189.65 465.57 205.77 481 141.87"/><g class="cls-6_report-analysis-1-6"><ellipse class="cls-14_report-analysis-1-6" cx="245.31" cy="428.63" rx="201.38" ry="35.5"/></g></g><g id="phone_report-analysis-1-6"><rect class="cls-12_report-analysis-1-6" x="328.85" y="402.4" width="81.45" height="21.44"/><g class="cls-3_report-analysis-1-6"><rect class="cls-12_report-analysis-1-6" x="311.04" y="381.42" width="81.45" height="21.44"/></g><rect class="cls-12_report-analysis-1-6" x="149.35" y="35.87" width="216.32" height="387.97"/><rect class="cls-1_report-analysis-1-6" x="167.25" y="80.1" width="179.05" height="273.04"/><path class="cls-12_report-analysis-1-6" d="m258.36,253.53c-31.55,0-57.22-25.67-57.22-57.22s25.67-57.22,57.22-57.22,57.22,25.67,57.22,57.22-25.67,57.22-57.22,57.22Zm0-99.03c-23.05,0-41.81,18.76-41.81,41.81s18.76,41.81,41.81,41.81,41.81-18.76,41.81-41.81-18.76-41.81-41.81-41.81Z"/><path class="cls-13_report-analysis-1-6" d="m258.36,253.53c-14.01,0-27.49-5.12-37.96-14.4l10.23-11.53c7.65,6.78,17.5,10.52,27.73,10.52v15.41Z"/><path class="cls-16_report-analysis-1-6 targetColor" d="m315.59,196.31h-15.41c0-23.05-18.76-41.81-41.81-41.81v-15.41c31.55,0,57.22,25.67,57.22,57.22Z" style="fill: rgb(104, 225, 253);"/><path class="cls-15_report-analysis-1-6" d="m258.36,253.53v-15.41c23.05,0,41.81-18.76,41.81-41.81h15.41c0,31.55-25.67,57.22-57.22,57.22Z"/><rect class="cls-16_report-analysis-1-6 targetColor" x="226.04" y="275.13" width="64.64" height="26.69" style="fill: rgb(104, 225, 253);"/><g class="cls-5_report-analysis-1-6"><circle class="cls-1_report-analysis-1-6" cx="258.16" cy="388.1" r="21.17"/></g><g class="cls-7_report-analysis-1-6"><path class="cls-14_report-analysis-1-6" d="m156.27,107.48s30.82.51,20.9,21.64c-9.92,21.13-12.64,39.92,11.56,46.24,24.2,6.32,35.86,44.38,34.91,72.18-.57,16.73-4.13,34.07-9.65,48.75-4.2,11.18-4.9,23.36-2.04,34.95l12.32,50.07-25.28,6.78,8.37,35.74h-58.02l-.09-84.69-31.43-137.73,34.62-74.59,3.82-19.35Z"/></g><g class="cls-8_report-analysis-1-6"><rect class="cls-14_report-analysis-1-6" x="239.21" y="51.03" width="60.65" height="8.85"/></g><circle class="cls-1_report-analysis-1-6" cx="217.24" cy="56.42" r="9.88"/><path class="cls-10_report-analysis-1-6" d="m259.62,177.79c1.02,0,1.33.35,1.33,1.37v2.17c4.07.57,6.41,2.61,8.13,6.14.53,1.06.31,1.64-.88,2.17l-2.17.97c-1.02.49-1.5.26-2.08-.8-1.19-2.3-2.65-3.4-5.66-3.4-3.76,0-5.48,1.1-5.48,3.62,0,1.63,1.5,2.65,3.05,2.96.75.18,1.81.35,3.18.49,2.47.22,3.71.4,5.88,1.15,1.1.4,1.94.84,2.61,1.41,1.24,1.15,2.34,3.36,2.34,6.19,0,4.82-3.23,8.09-8.93,8.93v2.3c0,1.02-.31,1.37-1.33,1.37h-2.43c-1.02,0-1.37-.35-1.37-1.37v-2.25c-4.42-.57-7.38-2.83-8.84-6.8-.35-.97,0-1.63,1.02-2.03l2.17-.8c1.1-.4,1.59-.13,2.08.97.97,2.47,2.96,3.71,5.96,3.71,4.07,0,6.1-1.28,6.1-3.89,0-1.37-.62-2.21-1.9-2.74-1.28-.49-2.39-.66-4.37-.84-2.43-.22-3.8-.49-5.92-1.28-1.06-.4-1.9-.88-2.56-1.46-1.33-1.19-2.39-3.31-2.39-6.01,0-4.77,3-7.95,8.66-8.7v-2.17c0-1.02.35-1.37,1.37-1.37h2.43Z"/><rect class="cls-13_report-analysis-1-6" x="233.27" y="107.31" width="48.81" height="10.97"/></g><g id="person_report-analysis-1-6"><path class="cls-2_report-analysis-1-6" d="m160.6,120.84s-.8,7.75-3.06,12.57c-.92,1.96-3.28,2.81-5.22,1.87-2.41-1.17-5.34-3.46-5.41-7.66l-1-7.12s-.47-4.48,4.44-6.76c4.91-2.27,10.98,2.4,10.26,7.1Z"/><polygon class="cls-2_report-analysis-1-6" points="144.31 124.46 139.24 149.49 153.23 151.29 151.35 132.84 144.31 124.46"/><path class="cls-2_report-analysis-1-6" d="m159.85,125.7l1.57,3.36c.39.83-.22,1.78-1.14,1.78h-3.03s2.6-5.13,2.6-5.13Z"/><g class="cls-9_report-analysis-1-6"><path class="cls-11_report-analysis-1-6" d="m151.4,133.36s-2.89-.89-4.28-2.77c0,0-1.61,5.35,4.82,8.06l-.54-5.29Z"/></g><path class="cls-2_report-analysis-1-6" d="m144.83,124.59s.51-2.96-1.75-3.15c-2.26-.2-3.02,4.07-.09,5.04l1.83-1.89Z"/><path class="cls-13_report-analysis-1-6" d="m159.07,120.18c-1.89.15-4.31-.06-7.43-.87,0,0-2.56,8.42-9.62,9.8,0,0-5.01-13.57,3.49-17.64,7.12-3.41,12.48-6.54,17.39-.96,3.14,3.57.91,9.28-3.82,9.67Z"/><circle class="cls-13_report-analysis-1-6" cx="141.51" cy="107.31" r="7.75"/><path class="cls-16_report-analysis-1-6 targetColor" d="m195.22,227.44s11.17,38.51,2.81,67.84c-8.36,29.33-48.92,18.37-40.79-15.21,8.13-33.58,37.98-52.63,37.98-52.63Z" style="fill: rgb(104, 225, 253);"/><g class="cls-4_report-analysis-1-6"><path class="cls-1_report-analysis-1-6" d="m195.22,227.44s11.17,38.51,2.81,67.84c-8.36,29.33-48.92,18.37-40.79-15.21,8.13-33.58,37.98-52.63,37.98-52.63Z"/></g><path class="cls-2_report-analysis-1-6" d="m151.26,123.85s.05-3.48-2.76-3.26c-2.81.22-3.22,4.26.05,6.24l2.72-2.98Z"/><path class="cls-16_report-analysis-1-6 targetColor" d="m139.24,149.49l13.99,1.81s75.71,36.34,32.38,87.51c-3.63,4.29-6.05,9.47-6.74,15.05l-3.93,31.43h-56.86s-82.13-117.44,21.17-135.8Z" style="fill: rgb(104, 225, 253);"/><polygon class="cls-2_report-analysis-1-6" points="179.34 329.11 181.05 422.25 175.03 424.01 155.82 335.99 179.34 329.11"/><g class="cls-7_report-analysis-1-6"><path class="cls-14_report-analysis-1-6" d="m139.65,178.58s15.91,24.11-5.89,46.93c-21.79,22.82-9.16,42.72,15.68,27.09,24.84-15.64,28.87,4.74,28.87,4.74l-1.48,12.8-38.67-.43-42.85.16-15.08-35.75,59.43-55.53Z"/></g><path class="cls-16_report-analysis-1-6 targetColor" d="m180.9,420.88s3.66,4.31,8.13,3.93c4.47-.38,5.35,5.92-1.87,5.53-2.76-.15-4.98-.51-6.67-.9-2.02-.46-4.08-.17-6.06.43-.62.19-1.34.07-2.08-.74-2.13-2.32,2.68-8.03,2.68-8.03l5.87-.21Z" style="fill: rgb(104, 225, 253);"/><polygon class="cls-2_report-analysis-1-6" points="101.68 328.92 95.3 421.85 101.23 423.91 124.83 336.97 101.68 328.92"/><path class="cls-16_report-analysis-1-6 targetColor" d="m95.52,420.49s-3.87,4.12-8.31,3.51c-4.44-.6-5.64,5.64,1.59,5.62,2.76-.01,5-.26,6.71-.56,2.04-.36,4.08.03,6.03.74.61.22,1.33.14,2.12-.64,2.24-2.22-2.28-8.16-2.28-8.16l-5.85-.51Z" style="fill: rgb(104, 225, 253);"/><rect class="cls-15_report-analysis-1-6" x="151.14" y="196.36" width="43.92" height="58.28" transform="translate(58.1 -34.48) rotate(13.65)"/><g class="cls-7_report-analysis-1-6"><path class="cls-14_report-analysis-1-6" d="m176.57,238.93s13.61,1.54,10.99,20.08l-23.78-5.62,12.79-14.45Z"/></g><polygon class="cls-13_report-analysis-1-6" points="176.83 270.13 192.68 365.84 151.26 365.84 133.76 365.84 83.62 366.93 105.49 270.13 176.83 270.13"/><path class="cls-16_report-analysis-1-6 targetColor" d="m139.65,178.58c.88-16.79-18.61-26.77-32.23-16.92-18.4,13.31-45.87,43.47-38.74,102.31,8.64,71.35,99.47-10.11,99.47-10.11l-4.96-12.64s-47.9,33.96-61.1,14.69c-4.07-5.94,1.5-14.91,5.69-22.03,7.56-12.86,30.81-34.79,31.88-55.3Z" style="fill: rgb(104, 225, 253);"/><g class="cls-4_report-analysis-1-6"><path class="cls-1_report-analysis-1-6" d="m139.65,178.58c.88-16.79-18.61-26.77-32.23-16.92-18.4,13.31-45.87,43.47-38.74,102.31,8.64,71.35,99.47-10.11,99.47-10.11l-4.96-12.64s-47.9,33.96-61.1,14.69c-4.07-5.94,1.5-14.91,5.69-22.03,7.56-12.86,30.81-34.79,31.88-55.3Z"/></g><path class="cls-2_report-analysis-1-6" d="m164.44,244.44s3.68-9.62,9.84-7.49,1.7,14.93-6.14,15.64l-3.7-8.15Z"/><path class="cls-16_report-analysis-1-6 targetColor" d="m133.76,150.59s-1.94-6.04,9.22-7.3c11.16-1.26,20.08,3.48,16.41,11.38,0,0-8.41,6.7-25.63-4.07Z" style="fill: rgb(104, 225, 253);"/><g class="cls-4_report-analysis-1-6"><path class="cls-1_report-analysis-1-6" d="m133.76,150.59s-1.94-6.04,9.22-7.3c11.16-1.26,20.08,3.48,16.41,11.38,0,0-8.41,6.7-25.63-4.07Z"/></g></g><g id="speech_report-analysis-1-6"><ellipse class="cls-13_report-analysis-1-6" cx="60.15" cy="96.41" rx="41.15" ry="34.24"/><polygon class="cls-13_report-analysis-1-6" points="88.84 112.04 103.49 136.96 79.37 119.06 88.84 112.04"/><circle class="cls-1_report-analysis-1-6" cx="76.35" cy="96.41" r="5.08"/><circle class="cls-1_report-analysis-1-6" cx="60.05" cy="96.41" r="5.08"/><circle class="cls-1_report-analysis-1-6" cx="43.94" cy="96.41" r="5.08"/></g></svg>